<svg xmlns="http://www.w3.org/2000/svg" viewBox="0 0 32 32" shape-rendering="crispEdges">
  <rect width="32" height="32" fill="#0a0a0f"/>
  <rect x="6" y="4" width="4" height="4" fill="#4B5BF6"/>
  <rect x="10" y="4" width="4" height="4" fill="#4B5BF6"/>
  <rect x="14" y="4" width="4" height="4" fill="#4B5BF6"/>
  <rect x="18" y="4" width="4" height="4" fill="#4B5BF6"/>
  <rect x="22" y="4" width="4" height="4" fill="#4B5BF6"/>
  <rect x="6" y="8" width="4" height="4" fill="#7C8CFF"/>
  <rect x="22" y="8" width="4" height="4" fill="#7C8CFF"/>
  <rect x="10" y="8" width="4" height="4" fill="#161A2E"/>
  <rect x="14" y="8" width="4" height="4" fill="#FFB930"/>
  <rect x="18" y="8" width="4" height="4" fill="#161A2E"/>
  <rect x="6" y="12" width="4" height="4" fill="#7C8CFF"/>
  <rect x="10" y="12" width="4" height="4" fill="#161A2E"/>
  <rect x="14" y="12" width="4" height="4" fill="#161A2E"/>
  <rect x="18" y="12" width="4" height="4" fill="#161A2E"/>
  <rect x="22" y="12" width="4" height="4" fill="#7C8CFF"/>
  <rect x="6" y="16" width="4" height="4" fill="#4B5BF6"/>
  <rect x="10" y="16" width="4" height="4" fill="#4B5BF6"/>
  <rect x="14" y="16" width="4" height="4" fill="#4B5BF6"/>
  <rect x="18" y="16" width="4" height="4" fill="#4B5BF6"/>
  <rect x="22" y="16" width="4" height="4" fill="#4B5BF6"/>
  <rect x="9" y="20" width="4" height="4" fill="#FF6FA8"/>
  <rect x="19" y="20" width="4" height="4" fill="#1FAE6E"/>
  <rect x="10" y="24" width="3" height="4" fill="#3A47D1"/>
  <rect x="19" y="24" width="3" height="4" fill="#3A47D1"/>
</svg>
